<svg version="1" xmlns="http://www.w3.org/2000/svg" width="21.333" height="21.333" viewBox="0 0 16.000000 16.000000"><g><path d="M0 7.984v7.985h15.96l.022-1.616c.01-.886.018-4.479.015-7.984l-.003-6.37H0v7.985zm14.772-6.057c.103.066.106.156.106 2.143v1.984l-.078.074-.075.078h-2.757c-2.67 0-2.764-.003-2.832-.059l-.075-.06V4.06c0-1.949.003-2.03.059-2.092l.06-.066h2.778c1.529 0 2.795.013 2.814.025zm-7.973.74v.701H5.193L3.977 4.694 2.763 6.019H1.06V4.647h1.058l1.05-1.148c.578-.63 1.136-1.232 1.242-1.341l.187-.193H6.8v.701zm0 2.245v1.107H5.396v-.811l-.636-.006-.64-.01.63-.692.63-.695H6.8v1.107zm4.28 3.992c.262.06.511.116.555.128.1.022 3.38 3.29 3.465 3.45.075.146.075.246 0 .393-.034.062-.527.58-1.1 1.15-1.155 1.152-1.136 1.136-1.401 1.014-.103-.046-.574-.499-1.812-1.74l-1.672-1.681-.131-.574-.128-.577.851-.833c.468-.461.861-.836.874-.836.012-.003.237.047.499.106zm-6.12.883c0 .845.003.864.187.957.072.038.237.047.842.047h.749v1.607c0 1.765 0 1.774-.184 1.868-.081.044-.374.05-2.483.05-1.7 0-2.41-.01-2.457-.035a.42.42 0 0 1-.122-.102c-.05-.06-.056-.24-.056-2.508 0-1.61.01-2.464.03-2.502.082-.152.095-.152 1.85-.156H4.96v.774zm1.092-.103l.67.67h-.595c-.805 0-.743.063-.755-.73a8.283 8.283 0 0 1 0-.61c.006 0 .312.302.68.67z"/><path d="M9.345 2.13a.18.18 0 0 0-.057.125c0 .168.144.243.272.14.187-.147-.022-.406-.215-.265zm5.021.019c-.075.084-.053.224.04.274.178.087.344-.15.197-.28-.078-.07-.171-.066-.237.006zm-2.779.449a1.298 1.298 0 0 0-.982 1.023c-.057.255-.028.842.053 1.045.137.355.414.633.748.764.228.084.746.118 1.005.059.383-.084.686-.315.835-.643.075-.162.14-.464.11-.495a3.072 3.072 0 0 0-.43-.016h-.416l-.034.122c-.065.252-.234.365-.502.34-.2-.02-.303-.097-.403-.294-.065-.13-.077-.193-.077-.464 0-.272.012-.334.077-.465.097-.197.203-.275.397-.29.237-.025.396.068.467.271l.057.156h.857v-.075c0-.134-.112-.443-.215-.59a1.117 1.117 0 0 0-.558-.402c-.225-.08-.761-.102-.989-.046zm-2.193 3.05a.174.174 0 0 0-.043.3c.165.134.39-.11.234-.247-.088-.075-.116-.081-.19-.053zm4.972.047a.169.169 0 0 0 .006.24c.075.069.172.065.234-.003.106-.116.035-.287-.118-.287a.187.187 0 0 0-.122.05zM9.875 9.862c-.072.1-.063.168.03.24.107.084.126.081.216-.013.094-.09.097-.152.016-.233-.084-.085-.203-.082-.262.006zm1.946.52v.122l-.162.022c-.378.053-.633.21-.758.468-.075.15-.084.2-.072.396.01.175.028.253.087.343.107.16.353.312.637.396l.237.072v.618l-.084-.035c-.125-.046-.16-.084-.181-.193-.047-.228-.016-.212-.4-.203l-.349.01.01.14c.012.19.14.446.28.561.131.11.359.2.577.231l.147.022v.309h.312v-.3l.268-.05c.455-.087.695-.293.764-.658a.861.861 0 0 0-.125-.636c-.1-.137-.33-.271-.639-.371l-.221-.069-.01-.287c-.01-.284-.01-.287.063-.265a.27.27 0 0 1 .2.222l.018.106H13.109l-.022-.147c-.05-.374-.34-.62-.798-.683l-.156-.022v-.24h-.312v.122zm.031.88c0 .278 0 .278-.224.166-.212-.11-.1-.412.156-.418.065 0 .068.012.068.252zm.487 1.107c.193.128.112.372-.15.43l-.087.02v-.537l.08.019a.766.766 0 0 1 .157.068zM3.63 10.804c-.6.146-.967.611-1.03 1.307-.075.845.418 1.503 1.21 1.612.272.038.63.003.83-.081l.115-.047.178.197.178.196.218-.218.222-.215-.16-.162-.158-.16.093-.168c.147-.262.206-.502.206-.839-.003-.752-.362-1.244-1.032-1.42a2.332 2.332 0 0 0-.87-.002zm.764.758c.14.103.2.268.215.605.022.43.01.449-.181.262l-.156-.153-.203.2-.202.2.156.158a.965.965 0 0 1 .155.181c0 .044-.237.019-.364-.037a.413.413 0 0 1-.203-.197c-.063-.118-.072-.178-.072-.524 0-.43.044-.577.209-.695.162-.122.48-.122.646 0z"/></g></svg>