<?xml version="1.0" standalone="no"?>
<!DOCTYPE svg PUBLIC "-//W3C//DTD SVG 20010904//EN"
 "http://www.w3.org/TR/2001/REC-SVG-20010904/DTD/svg10.dtd">
<svg version="1.0" xmlns="http://www.w3.org/2000/svg"
 width="769.000000pt" height="769.000000pt" viewBox="0 0 769.000000 769.000000"
 preserveAspectRatio="xMidYMid meet">
<metadata>
Created by potrace 1.11, written by Peter Selinger 2001-2013
</metadata>
<g transform="translate(0.000000,769.000000) scale(0.100000,-0.100000)"
fill="#000000" stroke="none">
<path d="M0 3845 l0 -3845 3845 0 3845 0 0 3845 0 3845 -3845 0 -3845 0 0
-3845z m2645 3341 l590 -23 95 -32 c52 -18 119 -46 150 -63 43 -24 479 -454
1938 -1912 1122 -1121 1892 -1897 1905 -1921 29 -53 31 -183 3 -235 -25 -49
-2611 -2636 -2661 -2663 -57 -31 -183 -31 -240 0 -24 13 -800 783 -1921 1905
-1458 1459 -1888 1895 -1912 1938 -17 31 -45 98 -63 150 l-32 95 -25 648 -25
649 21 86 c12 48 42 130 68 182 l47 95 496 496 496 497 95 46 c115 56 221 85
315 85 39 0 336 -10 660 -23z"/>
<path d="M1517 6500 c-129 -22 -254 -115 -312 -234 -86 -174 -60 -354 72 -496
242 -262 679 -128 745 228 43 229 -126 463 -362 501 -72 12 -75 12 -143 1z"/>
<path d="M3574 4231 l-549 -599 -247 -1 -248 -1 0 -320 0 -320 388 1 387 0
554 605 553 604 359 0 359 0 0 315 0 315 -504 0 -503 0 -549 -599z"/>
<path d="M4197 3682 l-287 -317 292 -5 293 -5 3 -182 2 -183 315 0 315 0 0
505 0 505 -322 -1 -323 0 -288 -317z"/>
</g>
</svg>
