<?xml version="1.0" standalone="no"?>
<!DOCTYPE svg PUBLIC "-//W3C//DTD SVG 20010904//EN"
 "http://www.w3.org/TR/2001/REC-SVG-20010904/DTD/svg10.dtd">
<svg version="1.0" xmlns="http://www.w3.org/2000/svg"
 width="16.000000pt" height="16.000000pt" viewBox="0 0 16.000000 16.000000"
 preserveAspectRatio="xMidYMid meet">
<metadata>
Created by potrace 1.11, written by Peter Selinger 2001-2013
</metadata>
<g transform="translate(0.000000,16.000000) scale(0.003119,-0.003119)"
fill="#000000" stroke="none">
<path d="M0 2570 l0 -2560 2559 0 2558 0 7 518 c3 284 6 1436 5 2560 l-1 2042
-2564 0 -2564 0 0 -2560z m4736 1942 c33 -21 34 -50 34 -687 l0 -636 -25 -24
-24 -25 -884 0 c-856 0 -886 1 -908 19 l-24 19 0 650 c0 625 1 651 19 671 l19
21 891 0 c490 0 896 -4 902 -8z m-2556 -237 l0 -225 -257 0 -258 0 -390 -425
-389 -425 -273 0 -273 0 0 220 0 220 169 0 170 0 337 368 c185 202 364 395
398 430 l60 62 353 0 353 0 0 -225z m0 -720 l0 -355 -225 0 -225 0 0 130 0
130 -204 2 -205 3 202 222 202 223 228 0 227 0 0 -355z m1372 -1280 c84 -19
164 -37 178 -41 32 -7 1084 -1055 1111 -1106 24 -47 24 -79 0 -126 -11 -20
-169 -186 -353 -369 -370 -369 -364 -364 -449 -325 -33 15 -184 160 -581 558
l-536 539 -42 184 -41 185 273 267 c150 148 276 268 280 268 4 1 76 -15 160
-34z m-1962 -283 c0 -271 1 -277 60 -307 23 -12 76 -15 270 -15 l240 0 0 -515
c0 -566 0 -569 -59 -599 -26 -14 -120 -16 -796 -16 -545 0 -773 3 -788 11 -12
6 -30 21 -39 33 -16 19 -18 77 -18 804 0 516 3 790 10 802 26 49 30 49 593 50
l527 0 0 -248z m350 33 l215 -215 -191 0 c-258 0 -238 -20 -242 234 -2 108 -2
196 0 196 2 0 100 -97 218 -215z"/>
<path d="M2996 4447 c-10 -8 -18 -26 -18 -40 0 -54 46 -78 87 -45 60 47 -7
130 -69 85z"/>
<path d="M4606 4441 c-24 -27 -17 -72 13 -88 57 -28 110 48 63 90 -25 22 -55
21 -76 -2z"/>
<path d="M3715 4297 c-166 -43 -278 -159 -315 -328 -18 -82 -9 -270 17 -335
44 -114 133 -203 240 -245 73 -27 239 -38 322 -19 123 27 220 101 268 206 24
52 45 149 35 159 -3 3 -65 5 -138 5 l-133 0 -11 -39 c-21 -81 -75 -117 -161
-109 -64 6 -97 31 -129 94 -21 42 -25 62 -25 149 0 87 4 107 25 149 31 63 65
88 127 93 76 8 127 -22 150 -87 l18 -50 137 0 138 0 0 24 c0 43 -36 142 -69
189 -38 56 -102 102 -179 129 -72 26 -244 33 -317 15z"/>
<path d="M3012 3319 c-40 -15 -48 -69 -14 -96 53 -43 125 35 75 79 -28 24 -37
26 -61 17z"/>
<path d="M4606 3304 c-21 -21 -20 -57 2 -77 24 -22 55 -21 75 1 34 37 11 92
-38 92 -13 0 -31 -7 -39 -16z"/>
<path d="M3166 1968 c-23 -32 -20 -54 10 -77 34 -27 40 -26 69 4 30 29 31 49
5 75 -27 27 -65 26 -84 -2z"/>
<path d="M3790 1801 l0 -39 -52 -7 c-121 -17 -203 -67 -243 -150 -24 -48 -27
-64 -23 -127 3 -56 9 -81 28 -110 34 -51 113 -100 204 -127 l76 -23 0 -99 0
-99 -27 11 c-40 15 -51 27 -58 62 -15 73 -5 68 -128 65 l-112 -3 3 -45 c4 -61
45 -143 90 -180 42 -35 115 -64 185 -74 l47 -7 0 -50 0 -49 50 0 50 0 0 48 0
48 86 16 c146 28 223 94 245 211 13 74 -2 151 -40 204 -32 44 -106 87 -205
119 l-71 22 -3 92 c-3 91 -3 92 20 85 36 -11 57 -35 64 -71 l6 -34 110 0 111
0 -7 47 c-16 120 -109 199 -256 219 l-50 7 0 38 0 39 -50 0 -50 0 0 -39z m10
-282 c0 -89 0 -89 -72 -53 -68 35 -32 132 50 134 21 0 22 -4 22 -81z m156
-355 c62 -41 36 -119 -48 -138 l-28 -6 0 86 0 86 26 -6 c14 -4 37 -14 50 -22z"/>
<path d="M1164 1666 c-192 -47 -310 -196 -330 -419 -24 -271 134 -482 388
-517 87 -12 202 -1 266 26 l37 15 57 -63 57 -63 70 70 71 69 -51 52 -51 51 30
54 c47 84 66 161 66 269 -1 241 -116 399 -331 455 -68 18 -208 18 -279 1z
m245 -243 c45 -33 64 -86 69 -194 7 -138 3 -144 -58 -84 l-50 49 -65 -64 -65
-64 50 -51 c28 -28 50 -54 50 -58 0 -14 -76 -6 -117 12 -30 14 -48 32 -65 63
-20 38 -23 57 -23 168 0 138 14 185 67 223 52 39 154 39 207 0z"/>
</g>
</svg>
